# xmcd
#
# Track frame offsets: 
#        150
#        35820
#        54295
#        97403
#        115350
#        162673
#        174385
#        201135
#        234423
#
# Disc length: 3399 seconds
#
# Revision: 0
# Processed by: cddbd v1.5.2PL0 Copyright (c) Steve Scherf et al.
# Submitted via: ExactAudioCopy v0.99pb3
#
DISCID=7e0d4509
DTITLE=U.P. Wilson - Texas Blues Party Vol.1 - The Texas Tornado
DYEAR=1900
DGENRE=Blues
TTITLE0=You're the One I Choose
TTITLE1=Cross Roads
TTITLE2=My Baby's Got a Black Cat Bone
TTITLE3=That's Your Woman
TTITLE4=My Baby's Mind
TTITLE5=One Hand Boogie
TTITLE6=Hold Me, Baby
TTITLE7=One Hand Blues
TTITLE8=The Thrill is Gone
EXTD=
EXTT0=
EXTT1=
EXTT2=
EXTT3=
EXTT4=
EXTT5=
EXTT6=
EXTT7=
EXTT8=
PLAYORDER=
